<svg id="Ebene_1" data-name="Ebene 1" xmlns="http://www.w3.org/2000/svg" viewBox="0 0 836.86 155.07">
  <path d="M0,95.84l6-1.11c4.1-.79,6.47-2.68,6.47-12.47V20.09C12.47,10.31,10.1,8.42,6,7.63L0,6.52V2c3.16.16,12.62.31,17.83.31,10.1,0,23.51,0,32.82-.15,10.1-.16,13.26-.48,17.2-.64,0,7.26.32,16.57.63,21.46H63l-1.42-7.26C60.75,12.05,58.7,9.36,53,9.36l-28.4-.15V48.65H46.55c5.52,0,6.31-1.42,6.79-4.1L54.91,37H59.8c-.15,3.94-.47,9.46-.47,14.51,0,4.26.32,11.37.47,15.31H54.91L53.49,60c-.47-2.69-1.42-4.58-6.94-4.58H24.62V82.26c0,9.79,2.36,12,6.47,12.47l9.46,1.11v4.57c-3.94-.16-14.36-.47-21.46-.47-7.57,0-15.14.31-19.09.47Z" style="fill: #1d1d1b"/>
  <path d="M162.35,52.76c0-27.3,20.2-52.71,51.28-52.71a77.36,77.36,0,0,1,27.46,4.74c.16,7.26.16,12.15.79,20.51h-6.16C234,13.62,227.05,6.68,211.27,6.68c-21.31,0-35.19,20.51-35.19,45,0,25.25,13.41,44.34,35,44.34,15.15,0,25.09-5.84,26.67-17.51h6.15c-.79,8.36-1.42,14.2-1.42,20.19a147.21,147.21,0,0,1-33.14,4C179.71,102.62,162.35,81.47,162.35,52.76Z" style="fill: #1d1d1b"/>
  <path d="M258,95.84l6-1.11c4.1-.79,6.47-2.68,6.47-12.47V20.09c0-9.78-2.37-11.67-6.47-12.46l-6-1.11V2c4,.16,11.52.31,19.1.31,7.1,0,14-.15,18-.31V6.52l-6,1.11c-4.1.79-6.47,2.68-6.47,12.46V45.66h50.65V20.09c0-9.78-2.37-11.67-6.47-12.46l-6-1.11V2c3.94.16,11.52.31,19.09.31,7.1,0,14-.15,18-.31V6.52l-6,1.11c-4.1.79-6.47,2.68-6.47,12.46V82.26c0,9.79,2.37,11.68,6.47,12.47l6,1.11v4.57c-4-.16-10.89-.47-18-.47-7.57,0-15.15.31-19.09.47V95.84l6-1.11c4.1-.79,6.47-2.68,6.47-12.47V52.6H282.58V82.26c0,9.79,2.37,11.68,6.47,12.47l6,1.11v4.57c-3.95-.16-10.89-.47-18-.47-7.58,0-15.15.31-19.1.47Z" style="fill: #1d1d1b"/>
  <path d="M445.23,2.35C445.82,1,446.85.59,448.61.59h11.61c2.65,0,3.53,1.17,3.53,3.67V96.74c0,2.5-.88,3.67-3.53,3.67H448.61c-2.64,0-3.53-1.17-3.53-3.67V41L429.67,81.62c-1,2.35-2.35,3.67-4.84,3.67H414.4c-2.49,0-3.81-1.47-4.69-3.67L393.85,41.25V96.74c0,2.5-.88,3.67-3.52,3.67h-11.6c-2.64,0-3.52-1.17-3.52-3.67V4.26c0-2.5.88-3.67,3.52-3.67h11.6a3,3,0,0,1,3.23,2.05l26.2,61.52Z" style="fill: #0061a1"/>
  <path d="M488.23,100.41c-2.64,0-3.52-1.17-3.52-3.82V4.4c0-2.64.88-3.81,3.52-3.81h50.21c2.49,0,3.67.88,3.67,3.52v9.25c0,2.64-1.18,3.67-3.67,3.67H504.53V40.81h31.41c2.65,0,3.82.88,3.82,3.52v8.81c0,2.5-1.17,3.52-3.82,3.52H504.53V84h35.38c2.64,0,3.67.88,3.67,3.52v9.25c0,2.64-1,3.67-3.67,3.67Z" style="fill: #0061a1"/>
  <path d="M563,100.41c-2.35,0-3.08-1.32-3.08-3.82V4.4c0-2.64.88-3.81,3.52-3.81h32c26.57,0,35.82,11.6,35.82,23.93v52c0,12.33-9.25,23.93-35.82,23.93ZM579.69,17V84h15.7c10,0,16-3.67,16-11V28c0-7.34-6-11-16-11Z" style="fill: #0061a1"/>
  <path d="M670,96.59c0,2.65-.88,3.82-3.52,3.82H653.66c-2.64,0-3.52-1.17-3.52-3.82V4.4c0-2.64.88-3.81,3.52-3.81h12.78C669.08.59,670,1.76,670,4.4Z" style="fill: #0061a1"/>
  <path d="M693.88,100.41c-2.64,0-3.52-1.17-3.52-3.82V4.4c0-2.64.88-3.81,3.52-3.81h50.21c2.49,0,3.67.88,3.67,3.52v9.25c0,2.64-1.18,3.67-3.67,3.67H710.18V40.81h31.41c2.65,0,3.82.88,3.82,3.52v8.81c0,2.5-1.17,3.52-3.82,3.52H710.18V84h35.38c2.64,0,3.67.88,3.67,3.52v9.25c0,2.64-1,3.67-3.67,3.67Z" style="fill: #0061a1"/>
  <path d="M818.22,4.26c0-2.5.88-3.67,3.52-3.67h11.6c2.64,0,3.52,1.17,3.52,3.67V96.74c0,2.5-.88,3.67-3.52,3.67h-11.6c-1.91,0-2.64-.44-3.38-1.76l-34.2-60.48V96.74c0,2.5-.88,3.67-3.53,3.67H769c-2.65,0-3.53-1.17-3.53-3.67V4.26c0-2.5.88-3.67,3.53-3.67h11.59a3.22,3.22,0,0,1,2.35.6,4.23,4.23,0,0,1,.74.87L818.22,63Z" style="fill: #0061a1"/>
  <path d="M122.54,63.34H93.07L86.28,83.56a23.78,23.78,0,0,0-1.42,6.79c0,1.9.47,4.43,3.47,4.74l7,.79v4.58c-4-.15-12-.47-17.69-.47-5.53,0-9.79.32-13.74.47V95.88l4.1-.95c5.37-1.1,7.59-6.31,9.8-12.63L107,1.9,116.45,0l30.49,82.14c3.31,9,5.37,11.85,9.95,13l3.47.79v4.58c-4-.15-10.11-.47-16.74-.47-6.79,0-16.43.32-20.38.47V95.88l7-.95c2.69-.31,4.74-2.52,4.74-5.84a15.73,15.73,0,0,0-1-4.9l-6.82-20-3-8.5L109.66,14.22,95.44,56.55h24.89Z" style="fill: #1d1d1b"/>
  <g>
    <path d="M560.37,133.16c0-4.16,2.67-7.06,10.3-7.06S581,129,581,133.16v14.91c0,4.09-2.68,7-10.3,7s-10.3-2.91-10.3-7Zm17.64.17c0-2.79-1.77-4.72-7.34-4.72s-7.34,1.93-7.34,4.72v14.51c0,2.84,1.76,4.72,7.34,4.72s7.34-1.88,7.34-4.72Z" style="fill: #1d1d1b"/>
    <path d="M599.47,126.67c.45,0,.68.17.68.63v1.13c0,.52-.23.69-.68.69h-6.72v18.21c0,2.79,1.6,4.72,7.17,4.72h.91a.61.61,0,0,1,.69.68v1.2c0,.51-.23.68-.69.68h-1.25c-7.68,0-9.79-2.73-9.79-7V129.12h-3.58c-.51,0-.68-.17-.68-.69v-.91c0-.51.17-.62.68-.68l3-.17h.56v-6.15c0-.51.23-.74.69-.74h1.65c.45,0,.62.23.62.74v6.15Z" style="fill: #1d1d1b"/>
    <path d="M617.74,126.67c.45,0,.68.17.68.63v1.13c0,.52-.23.69-.68.69H611v18.21c0,2.79,1.6,4.72,7.17,4.72h.91a.61.61,0,0,1,.69.68v1.2c0,.51-.23.68-.69.68h-1.25c-7.68,0-9.79-2.73-9.79-7V129.12h-3.58c-.51,0-.68-.17-.68-.69v-.91c0-.51.17-.62.68-.68l3-.17h.56v-6.15c0-.51.23-.74.69-.74h1.65c.45,0,.62.23.62.74v6.15Z" style="fill: #1d1d1b"/>
    <path d="M624.17,133.16c0-4.16,2.68-7.06,10.3-7.06s10.3,2.9,10.3,7.06v14.91c0,4.09-2.67,7-10.3,7s-10.3-2.91-10.3-7Zm17.64.17c0-2.79-1.76-4.72-7.34-4.72s-7.34,1.93-7.34,4.72v14.51c0,2.84,1.77,4.72,7.34,4.72s7.34-1.88,7.34-4.72Z" style="fill: #1d1d1b"/>
    <path d="M674.48,132.3c0-2.39-2.1-3.92-6.88-3.92s-6.77,1.53-6.77,3.92v1.77c0,1.93,1.82,3.13,3.18,3.53l8.88,2.78c2.68.86,4.78,2.57,4.78,5.18v3.36c0,3.36-3,6.15-10.07,6.15s-10-2.79-10-6.15v-1.59a.55.55,0,0,1,.63-.63h1.53c.4,0,.57.23.57.63v1.48c0,2.39,2.39,4,7.23,4s7.34-1.59,7.34-4v-2.56c0-1.88-1.65-2.85-3.59-3.48L662.47,140c-1.93-.63-4.43-2.56-4.43-5.41V132.3c0-3.35,2.61-6.2,9.61-6.2s9.62,2.85,9.62,6.2v1.77c0,.45-.17.62-.68.62h-1.48c-.4,0-.63-.17-.63-.62Z" style="fill: #1d1d1b"/>
    <path d="M703.51,133.16v1.08c0,.51-.17.68-.68.68h-1.48c-.51,0-.68-.17-.68-.68v-.91c0-2.79-1.48-4.72-7.12-4.72s-7,1.93-7,4.72v14.51c0,2.84,1.48,4.72,7,4.72s7.12-1.88,7.12-4.72v-1.37c0-.51.17-.68.68-.68h1.48c.51,0,.68.17.68.68v1.6c0,4.09-2.33,7-10,7s-10-2.91-10-7V133.16c0-4.16,2.33-7.06,10-7.06S703.51,129,703.51,133.16Z" style="fill: #1d1d1b"/>
    <path d="M713,129.57a15.27,15.27,0,0,1,9.79-3.47c5.35,0,7.8,2.85,7.8,6.83v21c0,.45-.17.68-.63.68h-1.65c-.45,0-.63-.23-.63-.68V133.5c0-2.79-1.65-4.72-5.57-4.72a14.2,14.2,0,0,0-9.11,3.41v21.74a.6.6,0,0,1-.68.68h-1.59c-.51,0-.68-.23-.68-.68V115.52c0-.46.17-.69.68-.69h1.59a.6.6,0,0,1,.68.69Z" style="fill: #1d1d1b"/>
    <path d="M740.74,126.56a.6.6,0,0,1,.68.68l.06,2.33A14.54,14.54,0,0,1,751,126.1c3.93,0,6.26,1.54,7.29,3.93a14.35,14.35,0,0,1,10-3.93c5.35,0,7.85,2.85,7.85,6.83v21a.6.6,0,0,1-.68.68h-1.59c-.52,0-.74-.23-.74-.68V133.5c0-2.79-1.6-4.72-5.58-4.72a13.29,13.29,0,0,0-8.88,3.47,4.42,4.42,0,0,1,.12,1.25v20.43c0,.45-.17.68-.63.68h-1.65c-.45,0-.63-.23-.63-.68V133.5c0-2.79-1.65-4.72-5.57-4.72a13,13,0,0,0-8.77,3.41v21.74a.6.6,0,0,1-.68.68h-1.59c-.51,0-.69-.23-.69-.68V127.24c0-.46.18-.68.69-.68Z" style="fill: #1d1d1b"/>
    <path d="M787.19,120.92a.61.61,0,0,1-.69.69h-1.59c-.51,0-.68-.23-.68-.69v-5.4c0-.46.17-.69.68-.69h1.59a.61.61,0,0,1,.69.69Zm0,33a.61.61,0,0,1-.69.68h-1.59c-.51,0-.68-.23-.68-.68V127.3c0-.52.17-.74.68-.74h1.59c.46,0,.69.22.69.74Z" style="fill: #1d1d1b"/>
    <path d="M812.57,151.59a15.79,15.79,0,0,1-9.9,3.48c-5.41,0-7.8-2.85-7.8-7v-15c0-4.15,2.39-7,7.8-7a15.87,15.87,0,0,1,9.84,3.47v-14c0-.46.17-.69.63-.69h1.65c.51,0,.68.23.68.69v38.41c0,.45-.17.68-.68.68h-1.42c-.52,0-.69-.23-.69-.68Zm-14.74-3.92c0,2.62,1.59,4.72,5.58,4.72a15.18,15.18,0,0,0,9.1-3.36V132.25a14.47,14.47,0,0,0-9.1-3.42c-4,0-5.58,2-5.58,4.67Z" style="fill: #1d1d1b"/>
    <path d="M836.18,126.67c.45,0,.68.17.68.63v1.13c0,.52-.23.69-.68.69h-8.24v18.21c0,2.79,1.59,4.72,7.17,4.72H836a.6.6,0,0,1,.68.68v1.2c0,.51-.23.68-.68.68h-1.25c-7.68,0-9.79-2.73-9.79-7V129.12H821.4c-.52,0-.69-.17-.69-.69v-.91c0-.51.17-.62.69-.68l3-.17H825v-6.15c0-.51.23-.74.68-.74h1.65c.46,0,.63.23.63.74v6.15Z" style="fill: #1d1d1b"/>
  </g>
</svg>
